<?xml version="1.0" encoding="UTF-8"?>
<svg xmlns="http://www.w3.org/2000/svg" xmlns:xlink="http://www.w3.org/1999/xlink" viewBox="0 0 120 120" width="120px" height="120px">
<g id="surface1842995">
<path style=" stroke:none;fill-rule:nonzero;fill:rgb(58.431375%,64.705884%,65.098041%);fill-opacity:1;" d="M 60 12 C 33.492188 12 12 33.492188 12 60 C 12 86.507812 33.492188 108 60 108 C 86.507812 108 108 86.507812 108 60 C 108 33.492188 86.507812 12 60 12 Z M 96.335938 43.371094 C 96.347656 43.757812 96.40625 44.085938 96.40625 44.484375 C 96.40625 48.65625 95.625 53.351562 93.277344 59.230469 L 81.328125 93.78125 C 78.792969 95.386719 76.066406 96.707031 73.191406 97.714844 L 60.726562 63.59375 L 48.765625 98.359375 C 46.203125 97.609375 43.753906 96.613281 41.433594 95.390625 L 22.988281 44.882812 C 24.070312 42.238281 25.425781 39.738281 27.019531 37.410156 C 27.429688 37.421875 27.886719 37.433594 28.246094 37.433594 C 32.550781 37.433594 39.21875 36.90625 39.21875 36.90625 C 41.445312 36.785156 41.699219 40.039062 39.484375 40.304688 C 39.484375 40.304688 37.253906 40.5625 34.773438 40.695312 L 49.765625 85.300781 L 58.773438 58.273438 L 52.363281 40.6875 C 50.140625 40.5625 48.042969 40.304688 48.042969 40.304688 C 45.820312 40.171875 46.089844 36.777344 48.304688 36.90625 C 48.304688 36.90625 55.105469 37.433594 59.144531 37.433594 C 63.449219 37.433594 70.117188 36.90625 70.117188 36.90625 C 72.339844 36.785156 72.597656 40.039062 70.378906 40.304688 C 70.378906 40.304688 68.144531 40.5625 65.667969 40.695312 L 80.546875 84.960938 L 84.660156 71.222656 C 86.746094 65.875 87.792969 61.449219 87.792969 57.914062 C 87.792969 52.828125 85.96875 49.304688 84.394531 46.5625 C 82.3125 43.167969 80.347656 40.300781 80.347656 36.902344 C 80.347656 33.507812 82.667969 30.34375 86.070312 29.726562 C 90.40625 33.472656 93.921875 38.117188 96.335938 43.371094 Z M 96.335938 43.371094 "/>
</g>
</svg>
