<?xml version="1.0" encoding="UTF-8"?>
<svg xmlns="http://www.w3.org/2000/svg" xmlns:xlink="http://www.w3.org/1999/xlink" viewBox="0 0 150 150" width="150px" height="150px">
<g id="surface1759744">
<path style=" stroke:none;fill-rule:nonzero;fill:rgb(58.431375%,64.705884%,65.098041%);fill-opacity:1;" d="M 26.699219 8.898438 C 17.101562 8.898438 9 16.695312 9 26.59375 C 9 35.59375 15.597656 42.796875 24.300781 43.996094 C 21.300781 53.898438 24 64.996094 31.800781 73.09375 L 34.203125 75.496094 L 47.097656 88.398438 L 57.921875 99 L 70.792969 85.992188 L 44.703125 59.898438 C 40.5 55.699219 40.5 48.796875 44.703125 44.59375 C 48.261719 41.035156 53.757812 40.527344 57.910156 43.007812 L 58.160156 42.753906 L 70.929688 29.980469 C 63.292969 23.605469 53.203125 21.714844 44.097656 24.199219 C 42.898438 15.496094 35.703125 8.898438 26.703125 8.898438 Z M 122.703125 9.300781 C 113.703125 9.300781 106.5 15.898438 105.300781 24.597656 C 95.398438 21.597656 84.300781 24.296875 76.203125 32.097656 L 73.800781 34.5 L 60.902344 47.402344 L 50.296875 58.21875 L 63.304688 71.09375 L 89.402344 45 C 93.601562 40.800781 100.5 40.800781 104.699219 45 C 108.261719 48.5625 108.769531 54.054688 106.289062 58.207031 L 106.539062 58.460938 L 119.3125 71.226562 C 125.691406 63.589844 127.582031 53.507812 125.097656 44.402344 C 133.800781 43.203125 140.402344 36 140.402344 27 C 140.402344 17.398438 132.601562 9.300781 122.699219 9.300781 Z M 92.078125 50.898438 L 79.207031 63.902344 L 105.296875 90 C 109.5 94.199219 109.5 101.097656 105.296875 105.296875 C 101.738281 108.859375 96.242188 109.375 92.089844 106.890625 L 91.839844 107.144531 L 79.070312 119.910156 C 86.707031 126.289062 96.796875 128.179688 105.902344 125.695312 C 107.101562 134.398438 114.296875 141 123.296875 141 C 132.898438 141 141 133.199219 141 123.296875 C 141 114.296875 134.402344 107.101562 125.703125 105.902344 C 128.703125 96.003906 126 84.898438 118.203125 76.796875 L 115.800781 74.402344 L 102.902344 61.5 Z M 30.085938 79.070312 C 23.707031 86.707031 21.816406 96.796875 24.296875 105.902344 C 15.597656 107.101562 9 114.296875 9 123.296875 C 9 132.898438 16.800781 141 26.699219 141 C 35.699219 141 42.898438 134.402344 44.097656 125.703125 C 53.996094 128.703125 65.101562 126 73.199219 118.203125 L 75.597656 115.800781 L 88.5 102.902344 L 99.097656 92.082031 L 86.097656 79.207031 L 60 105.300781 C 55.800781 109.5 48.902344 109.5 44.703125 105.300781 C 41.140625 101.738281 40.625 96.242188 43.109375 92.09375 Z M 30.085938 79.070312 "/>
</g>
</svg>
